# xmcd
#
# Track frame offsets:
#	150
#	12956
#	27567
#	44786
#	57976
#	68841
#	81029
#	98119
#	109407
#	121355
#
# Disc length: 1772 seconds
#
# Revision: 1
# Processed by: cddbd v1.5.2PL0 Copyright (c) Steve Scherf et al.
# Submitted via: audiograbber 1.83.01
#
DISCID=8a06ea0a
DTITLE=Richard Draime - That´s All She Wrote Richard Draime
DYEAR=1900
DGENRE=
TTITLE0=Love Goes Without Saying
TTITLE1=It´s Enough To Make An Angel
TTITLE2=Music To My Tears
TTITLE3=In Memory Of Your Memory
TTITLE4=Thank God For Jesus
TTITLE5=Driving Me Crazy
TTITLE6=Burn Your Memory Down
TTITLE7=That´s All She Wrote
TTITLE8=My Baby And Me
TTITLE9=No Thanks I´m Driving
EXTD=
EXTT0=
EXTT1=
EXTT2=
EXTT3=
EXTT4=
EXTT5=
EXTT6=
EXTT7=
EXTT8=
EXTT9=
PLAYORDER=
